<?xml version="1.0" encoding="utf-8"?>
<!-- Generator: Adobe Illustrator 18.1.1, SVG Export Plug-In . SVG Version: 6.00 Build 0)  -->
<svg version="1.1" id="Layer_1" xmlns="http://www.w3.org/2000/svg" xmlns:xlink="http://www.w3.org/1999/xlink" x="0px" y="0px"
	 viewBox="0 0 128 128" enable-background="new 0 0 128 128" xml:space="preserve">
<path d="M29.6,20c0,2.8,2.2,5,5,5s5-2.2,5-5V5c0-2.8-2.2-5-5-5s-5,2.2-5,5V20z"/>
<path d="M88.6,20c0,2.8,2.2,5,5,5s5-2.2,5-5V5c0-2.8-2.2-5-5-5s-5,2.2-5,5V20z"/>
<rect x="24.5" y="54" width="12" height="12"/>
<rect x="91.5" y="54" width="12" height="12"/>
<rect x="24.5" y="96" width="12" height="12"/>
<rect x="24.5" y="75" width="12" height="12"/>
<rect x="46.8" y="54" width="12" height="12"/>
<rect x="69.2" y="54" width="12" height="12"/>
<rect x="91.5" y="75" width="12" height="12"/>
<rect x="46.8" y="75" width="12" height="12"/>
<rect x="69.2" y="75" width="12" height="12"/>
<rect x="46.8" y="96" width="12" height="12"/>
<rect x="69.2" y="96" width="12" height="12"/>
<path d="M113,10h-9.5v9.8c0,5.5-4.5,10-10,10s-10-4.5-10-10V10h-39v9.8c0,5.5-4.5,10-10,10s-10-4.5-10-10V10H15C6.7,10,0,16.7,0,25
	v88c0,8.3,6.7,15,15,15h98c8.3,0,15-6.7,15-15V25C128,16.7,121.3,10,113,10z M118.5,110.3c0,4.4-3.6,8-8,8h-93c-4.4,0-8-3.6-8-8v-66
	h109V110.3z"/>
</svg>
